<?xml version="1.0" encoding="utf-8"?>
<!-- Generator: Adobe Illustrator 16.0.4, SVG Export Plug-In . SVG Version: 6.00 Build 0)  -->
<!DOCTYPE svg PUBLIC "-//W3C//DTD SVG 1.1//EN" "http://www.w3.org/Graphics/SVG/1.1/DTD/svg11.dtd">
<svg version="1.1" xmlns="http://www.w3.org/2000/svg" xmlns:xlink="http://www.w3.org/1999/xlink" x="0px" y="0px" width="310px"
	 height="70px" viewBox="0 0 310 70" enable-background="new 0 0 310 70" xml:space="preserve">
<g id="Background">
	<path fill-rule="evenodd" clip-rule="evenodd" fill="none" stroke="#646567" stroke-width="3" stroke-miterlimit="10" d="
		M280.871,35.76c0-4.702,1.651-10.234,6.814-10.234c5.094,0,6.745,5.532,6.745,10.303c0,5.532-2.202,10.026-6.745,10.026
		C283.073,45.855,280.871,41.154,280.871,35.76z M269.957,35.76c0,11.132,7.576,17.628,17.246,17.628
		c8.41,0,18.141-5.045,18.141-17.696c0-10.862-7.159-17.693-17.314-17.693C278.09,17.998,269.957,24.341,269.957,35.76z
		 M234.089,52.62h10.622V42.058l2.625-3.313l8.224,13.876h12.92L254.66,32.599l12.092-13.739h-12.644l-6.842,10.217
		c-0.828,1.243-1.588,2.625-2.417,4.004l-0.139-29.506h-10.622V52.62z M203.106,35.76c0-4.702,1.652-10.234,6.815-10.234
		c5.094,0,6.745,5.532,6.745,10.303c0,5.532-2.202,10.026-6.745,10.026C205.309,45.855,203.106,41.154,203.106,35.76z
		 M192.192,35.76c0,11.132,7.577,17.628,17.246,17.628c8.411,0,18.141-5.045,18.141-17.696c0-10.862-7.158-17.693-17.313-17.693
		C200.326,17.998,192.192,24.341,192.192,35.76z M165.436,31.832c0.275-2.744,2.076-6.79,6.506-6.79c4.776,0,5.953,4.321,5.953,6.79
		H165.436z M155.445,36.076c0,10.573,6.591,17.31,18.087,17.31c4.501,0,8.802-0.763,12.271-2.151l-1.387-7.211
		c-2.914,0.964-5.759,1.446-9.36,1.446c-4.913,0-9.206-2.064-9.551-6.401h21.824c0.139-0.766,0.416-2.297,0.416-4.175
		c0-8.343-4.231-16.895-15.181-16.895C160.787,17.998,155.445,27.511,155.445,36.076z M126.544,40.332
		c-0.139-0.621-0.208-1.382-0.208-2.21v-4.625c0-0.568,0.069-1.256,0.208-1.807c0.692-3.024,3.325-5.293,6.304-5.293
		c4.711,0,7.137,4.057,7.137,9.419c0,5.706-2.703,9.558-7.274,9.558C129.662,45.373,127.236,43.163,126.544,40.332z M126.336,49.518
		c1.594,2.28,4.851,3.87,8.938,3.87c7.552,0,15.448-5.806,15.448-18.096c0-10.78-6.719-17.205-14.131-17.205
		c-4.92,0-8.729,1.866-11.295,5.458l-0.626-4.685h-9.232c0.139,3.177,0.277,6.904,0.277,11.323V66.26h10.622V49.518z M87.274,41.985
		c0-3.968,4.203-5.267,9.78-5.336v3.763c0,0.547,0,1.232-0.207,1.71c-0.689,2.121-2.824,3.831-5.371,3.831
		C89.066,45.953,87.274,44.654,87.274,41.985z M76.846,43.12c0,5.333,4.102,10.266,10.98,10.266c3.994,0,7.438-1.458,9.643-4.099
		h0.207l0.622,3.333h9.466c-0.346-1.928-0.552-4.956-0.552-8.192V32.673c0-7.897-3.523-14.578-14.771-14.578
		c-6.139,0-10.797,1.669-13.161,3.062l1.945,6.691c2.295-1.292,5.841-2.515,9.286-2.515c5.234,0,6.198,2.515,6.198,4.282v0.476
		C84.772,30.09,76.846,34.277,76.846,43.12z M38.227,52.62h10.622V32.599c0-0.76,0.139-1.658,0.345-2.349
		c0.759-1.864,2.483-3.659,5.243-3.659c3.932,0,5.45,3.038,5.45,7.457V52.62h10.542V32.943c0-10.22-5.132-14.851-11.853-14.851
		c-1.932,0-3.863,0.484-5.449,1.314c-1.587,0.83-3.035,2.003-4.139,3.523L48.848,3.576H38.227V52.62z M6.117,50.955
		c2.495,1.389,6.522,2.431,10.967,2.431c9.642,0,14.616-4.723,14.616-11.017c-0.07-4.964-2.763-8.204-9.19-10.411
		c-4.123-1.447-5.426-2.274-5.426-3.86c0-1.655,1.441-2.757,3.979-2.757c2.897,0,5.801,1.172,7.32,1.931l1.866-7.252
		c-2.072-1.036-5.596-1.934-9.529-1.934c-8.427,0-13.774,4.698-13.774,11.047c0,3.997,2.639,7.79,9.723,10.133
		c3.777,1.309,4.875,2.137,4.875,3.859c0,1.794-1.372,2.827-4.529,2.827c-3.055,0-7.083-1.379-9.027-2.551L6.117,50.955z"/>
	<path fill-rule="evenodd" clip-rule="evenodd" fill="#D4D6D7" d="M280.871,35.76c0-4.702,1.651-10.234,6.814-10.234
		c5.094,0,6.745,5.532,6.745,10.303c0,5.532-2.202,10.026-6.745,10.026C283.073,45.855,280.871,41.154,280.871,35.76z
		 M269.957,35.76c0,11.132,7.576,17.628,17.246,17.628c8.41,0,18.141-5.045,18.141-17.696c0-10.862-7.159-17.693-17.314-17.693
		C278.09,17.998,269.957,24.341,269.957,35.76z M234.089,52.62h10.622V42.058l2.625-3.313l8.224,13.876h12.92L254.66,32.599
		l12.092-13.739h-12.644l-6.842,10.217c-0.828,1.243-1.588,2.625-2.417,4.004l-0.139-29.506h-10.622V52.62z M203.106,35.76
		c0-4.702,1.652-10.234,6.815-10.234c5.094,0,6.745,5.532,6.745,10.303c0,5.532-2.202,10.026-6.745,10.026
		C205.309,45.855,203.106,41.154,203.106,35.76z M192.192,35.76c0,11.132,7.577,17.628,17.246,17.628
		c8.411,0,18.141-5.045,18.141-17.696c0-10.862-7.158-17.693-17.313-17.693C200.326,17.998,192.192,24.341,192.192,35.76z
		 M165.436,31.832c0.275-2.744,2.076-6.79,6.506-6.79c4.776,0,5.953,4.321,5.953,6.79H165.436z M155.445,36.076
		c0,10.573,6.591,17.31,18.087,17.31c4.501,0,8.802-0.763,12.271-2.151l-1.387-7.211c-2.914,0.964-5.759,1.446-9.36,1.446
		c-4.913,0-9.206-2.064-9.551-6.401h21.824c0.139-0.766,0.416-2.297,0.416-4.175c0-8.343-4.231-16.895-15.181-16.895
		C160.787,17.998,155.445,27.511,155.445,36.076z M126.544,40.332c-0.139-0.621-0.208-1.382-0.208-2.21v-4.625
		c0-0.568,0.069-1.256,0.208-1.807c0.692-3.024,3.325-5.293,6.304-5.293c4.711,0,7.137,4.057,7.137,9.419
		c0,5.706-2.703,9.558-7.274,9.558C129.662,45.373,127.236,43.163,126.544,40.332z M126.336,49.518
		c1.594,2.28,4.851,3.87,8.938,3.87c7.552,0,15.448-5.806,15.448-18.096c0-10.78-6.719-17.205-14.131-17.205
		c-4.92,0-8.729,1.866-11.295,5.458l-0.626-4.685h-9.232c0.139,3.177,0.277,6.904,0.277,11.323V66.26h10.622V49.518z M87.274,41.985
		c0-3.968,4.203-5.267,9.78-5.336v3.763c0,0.547,0,1.232-0.207,1.71c-0.689,2.121-2.824,3.831-5.371,3.831
		C89.066,45.953,87.274,44.654,87.274,41.985z M76.846,43.12c0,5.333,4.102,10.266,10.98,10.266c3.994,0,7.438-1.458,9.643-4.099
		h0.207l0.622,3.333h9.466c-0.346-1.928-0.552-4.956-0.552-8.192V32.673c0-7.897-3.523-14.578-14.771-14.578
		c-6.139,0-10.797,1.669-13.161,3.062l1.945,6.691c2.295-1.292,5.841-2.515,9.286-2.515c5.234,0,6.198,2.515,6.198,4.282v0.476
		C84.772,30.09,76.846,34.277,76.846,43.12z M38.227,52.62h10.622V32.599c0-0.76,0.139-1.658,0.345-2.349
		c0.759-1.864,2.483-3.659,5.243-3.659c3.932,0,5.45,3.038,5.45,7.457V52.62h10.542V32.943c0-10.22-5.132-14.851-11.853-14.851
		c-1.932,0-3.863,0.484-5.449,1.314c-1.587,0.83-3.035,2.003-4.139,3.523L48.848,3.576H38.227V52.62z M6.117,50.955
		c2.495,1.389,6.522,2.431,10.967,2.431c9.642,0,14.616-4.723,14.616-11.017c-0.07-4.964-2.763-8.204-9.19-10.411
		c-4.123-1.447-5.426-2.274-5.426-3.86c0-1.655,1.441-2.757,3.979-2.757c2.897,0,5.801,1.172,7.32,1.931l1.866-7.252
		c-2.072-1.036-5.596-1.934-9.529-1.934c-8.427,0-13.774,4.698-13.774,11.047c0,3.997,2.639,7.79,9.723,10.133
		c3.777,1.309,4.875,2.137,4.875,3.859c0,1.794-1.372,2.827-4.529,2.827c-3.055,0-7.083-1.379-9.027-2.551L6.117,50.955z"/>
</g>
<g id="Guides">
</g>
<g id="Foreground">
</g>
<g id="Layer_4">
	<g>
		<defs>
			<path id="SVGID_1_" d="M280.871,35.76c0-4.702,1.651-10.234,6.814-10.234c5.094,0,6.745,5.532,6.745,10.303
				c0,5.532-2.202,10.026-6.745,10.026C283.073,45.855,280.871,41.154,280.871,35.76z M269.957,35.76
				c0,11.132,7.576,17.628,17.246,17.628c8.41,0,18.141-5.045,18.141-17.696c0-10.862-7.159-17.693-17.314-17.693
				C278.09,17.998,269.957,24.341,269.957,35.76z M234.089,52.62h10.622V42.058l2.625-3.313l8.224,13.876h12.92L254.66,32.599
				l12.092-13.739h-12.644l-6.842,10.217c-0.828,1.243-1.588,2.625-2.417,4.004l-0.139-29.506h-10.622V52.62z M203.106,35.76
				c0-4.702,1.652-10.234,6.815-10.234c5.094,0,6.745,5.532,6.745,10.303c0,5.532-2.202,10.026-6.745,10.026
				C205.309,45.855,203.106,41.154,203.106,35.76z M192.192,35.76c0,11.132,7.577,17.628,17.246,17.628
				c8.411,0,18.141-5.045,18.141-17.696c0-10.862-7.158-17.693-17.313-17.693C200.326,17.998,192.192,24.341,192.192,35.76z
				 M165.436,31.832c0.275-2.744,2.076-6.79,6.506-6.79c4.776,0,5.953,4.321,5.953,6.79H165.436z M155.445,36.076
				c0,10.573,6.591,17.31,18.087,17.31c4.501,0,8.802-0.763,12.271-2.151l-1.387-7.211c-2.914,0.964-5.759,1.446-9.36,1.446
				c-4.913,0-9.206-2.064-9.551-6.401h21.824c0.139-0.766,0.416-2.297,0.416-4.175c0-8.343-4.231-16.895-15.181-16.895
				C160.787,17.998,155.445,27.511,155.445,36.076z M126.544,40.332c-0.139-0.621-0.208-1.382-0.208-2.21v-4.625
				c0-0.568,0.069-1.256,0.208-1.807c0.692-3.024,3.325-5.293,6.304-5.293c4.711,0,7.137,4.057,7.137,9.419
				c0,5.706-2.703,9.558-7.274,9.558C129.662,45.373,127.236,43.163,126.544,40.332z M126.336,49.518
				c1.594,2.28,4.851,3.87,8.938,3.87c7.552,0,15.448-5.806,15.448-18.096c0-10.78-6.719-17.205-14.131-17.205
				c-4.92,0-8.729,1.866-11.295,5.458l-0.626-4.685h-9.232c0.139,3.177,0.277,6.904,0.277,11.323V66.26h10.622V49.518z
				 M87.274,41.985c0-3.968,4.203-5.267,9.78-5.336v3.763c0,0.547,0,1.232-0.207,1.71c-0.689,2.121-2.824,3.831-5.371,3.831
				C89.066,45.953,87.274,44.654,87.274,41.985z M76.846,43.12c0,5.333,4.102,10.266,10.98,10.266c3.994,0,7.438-1.458,9.643-4.099
				h0.207l0.622,3.333h9.466c-0.346-1.928-0.552-4.956-0.552-8.192V32.673c0-7.897-3.523-14.578-14.771-14.578
				c-6.139,0-10.797,1.669-13.161,3.062l1.945,6.691c2.295-1.292,5.841-2.515,9.286-2.515c5.234,0,6.198,2.515,6.198,4.282v0.476
				C84.772,30.09,76.846,34.277,76.846,43.12z M38.227,52.62h10.622V32.599c0-0.76,0.139-1.658,0.345-2.349
				c0.759-1.864,2.483-3.659,5.243-3.659c3.932,0,5.45,3.038,5.45,7.457V52.62h10.542V32.943c0-10.22-5.132-14.851-11.853-14.851
				c-1.932,0-3.863,0.484-5.449,1.314c-1.587,0.83-3.035,2.003-4.139,3.523L48.848,3.576H38.227V52.62z M6.117,50.955
				c2.495,1.389,6.522,2.431,10.967,2.431c9.642,0,14.616-4.723,14.616-11.017c-0.07-4.964-2.763-8.204-9.19-10.411
				c-4.123-1.447-5.426-2.274-5.426-3.86c0-1.655,1.441-2.757,3.979-2.757c2.897,0,5.801,1.172,7.32,1.931l1.866-7.252
				c-2.072-1.036-5.596-1.934-9.529-1.934c-8.427,0-13.774,4.698-13.774,11.047c0,3.997,2.639,7.79,9.723,10.133
				c3.777,1.309,4.875,2.137,4.875,3.859c0,1.794-1.372,2.827-4.529,2.827c-3.055,0-7.083-1.379-9.027-2.551L6.117,50.955z"/>
		</defs>
		<clipPath id="SVGID_2_">
			<use xlink:href="#SVGID_1_"  overflow="visible"/>
		</clipPath>
		
			<line clip-path="url(#SVGID_2_)" fill="none" stroke="#BEC0C2" stroke-miterlimit="10" x1="331.833" y1="-1.5" x2="187.167" y2="73.833"/>
		
			<line clip-path="url(#SVGID_2_)" fill="none" stroke="#BEC0C2" stroke-miterlimit="10" x1="372.499" y1="-1.5" x2="227.833" y2="73.833"/>
		
			<line clip-path="url(#SVGID_2_)" fill="none" stroke="#BEC0C2" stroke-miterlimit="10" x1="268.166" y1="-1.5" x2="123.5" y2="73.833"/>
		
			<line clip-path="url(#SVGID_2_)" fill="none" stroke="#BEC0C2" stroke-miterlimit="10" x1="218.166" y1="-1.5" x2="73.5" y2="73.833"/>
		
			<line clip-path="url(#SVGID_2_)" fill="none" stroke="#BEC0C2" stroke-miterlimit="10" x1="200.833" y1="-1.5" x2="56.167" y2="73.833"/>
		
			<line clip-path="url(#SVGID_2_)" fill="none" stroke="#BEC0C2" stroke-miterlimit="10" x1="157.832" y1="-1.5" x2="13.167" y2="73.833"/>
		
			<line clip-path="url(#SVGID_2_)" fill="none" stroke="#BEC0C2" stroke-miterlimit="10" x1="115.832" y1="-1.5" x2="-28.833" y2="73.833"/>
		
			<line clip-path="url(#SVGID_2_)" fill="none" stroke="#BEC0C2" stroke-miterlimit="10" x1="78.832" y1="-1.5" x2="-65.833" y2="73.833"/>
		
			<line clip-path="url(#SVGID_2_)" fill="none" stroke="#DFE0E2" stroke-width="3" stroke-miterlimit="10" x1="360.833" y1="-8.833" x2="216.167" y2="66.5"/>
		
			<line clip-path="url(#SVGID_2_)" fill="none" stroke="#DFE0E2" stroke-width="3" stroke-miterlimit="10" x1="401.499" y1="-8.833" x2="256.833" y2="66.5"/>
		
			<line clip-path="url(#SVGID_2_)" fill="none" stroke="#DFE0E2" stroke-width="3" stroke-miterlimit="10" x1="297.166" y1="-8.833" x2="152.5" y2="66.5"/>
		
			<line clip-path="url(#SVGID_2_)" fill="none" stroke="#DFE0E2" stroke-width="3" stroke-miterlimit="10" x1="247.166" y1="-8.833" x2="102.5" y2="66.5"/>
		
			<line clip-path="url(#SVGID_2_)" fill="none" stroke="#DFE0E2" stroke-width="3" stroke-miterlimit="10" x1="229.833" y1="-8.833" x2="85.167" y2="66.5"/>
		
			<line clip-path="url(#SVGID_2_)" fill="none" stroke="#DFE0E2" stroke-width="3" stroke-miterlimit="10" x1="186.832" y1="-8.833" x2="42.167" y2="66.5"/>
		
			<line clip-path="url(#SVGID_2_)" fill="none" stroke="#DFE0E2" stroke-width="3" stroke-miterlimit="10" x1="144.832" y1="-8.833" x2="0.167" y2="66.5"/>
		
			<line clip-path="url(#SVGID_2_)" fill="none" stroke="#DFE0E2" stroke-width="3" stroke-miterlimit="10" x1="107.832" y1="-8.833" x2="-36.833" y2="66.5"/>
		
			<line clip-path="url(#SVGID_2_)" fill="none" stroke="#BEC0C2" stroke-miterlimit="10" x1="549.166" y1="-1.5" x2="404.5" y2="73.833"/>
		
			<line clip-path="url(#SVGID_2_)" fill="none" stroke="#BEC0C2" stroke-miterlimit="10" x1="589.832" y1="-1.5" x2="445.166" y2="73.833"/>
		
			<line clip-path="url(#SVGID_2_)" fill="none" stroke="#BEC0C2" stroke-miterlimit="10" x1="485.5" y1="-1.5" x2="340.834" y2="73.833"/>
		
			<line clip-path="url(#SVGID_2_)" fill="none" stroke="#BEC0C2" stroke-miterlimit="10" x1="435.5" y1="-1.5" x2="290.834" y2="73.833"/>
		
			<line clip-path="url(#SVGID_2_)" fill="none" stroke="#BEC0C2" stroke-miterlimit="10" x1="418.166" y1="-1.5" x2="273.5" y2="73.833"/>
		
			<line clip-path="url(#SVGID_2_)" fill="none" stroke="#BEC0C2" stroke-miterlimit="10" x1="375.166" y1="-1.5" x2="230.5" y2="73.833"/>
		
			<line clip-path="url(#SVGID_2_)" fill="none" stroke="#BEC0C2" stroke-miterlimit="10" x1="333.166" y1="-1.5" x2="188.5" y2="73.833"/>
		
			<line clip-path="url(#SVGID_2_)" fill="none" stroke="#BEC0C2" stroke-miterlimit="10" x1="296.166" y1="-1.5" x2="151.5" y2="73.833"/>
		
			<line clip-path="url(#SVGID_2_)" fill="none" stroke="#DFE0E2" stroke-width="3" stroke-miterlimit="10" x1="578.166" y1="-8.833" x2="433.5" y2="66.5"/>
		
			<line clip-path="url(#SVGID_2_)" fill="none" stroke="#DFE0E2" stroke-width="3" stroke-miterlimit="10" x1="618.832" y1="-8.833" x2="474.166" y2="66.5"/>
		
			<line clip-path="url(#SVGID_2_)" fill="none" stroke="#DFE0E2" stroke-width="3" stroke-miterlimit="10" x1="514.5" y1="-8.833" x2="369.834" y2="66.5"/>
		
			<line clip-path="url(#SVGID_2_)" fill="none" stroke="#DFE0E2" stroke-width="3" stroke-miterlimit="10" x1="464.5" y1="-8.833" x2="319.834" y2="66.5"/>
		
			<line clip-path="url(#SVGID_2_)" fill="none" stroke="#DFE0E2" stroke-width="3" stroke-miterlimit="10" x1="447.166" y1="-8.833" x2="302.5" y2="66.5"/>
		
			<line clip-path="url(#SVGID_2_)" fill="none" stroke="#DFE0E2" stroke-width="3" stroke-miterlimit="10" x1="404.166" y1="-8.833" x2="259.5" y2="66.5"/>
		
			<line clip-path="url(#SVGID_2_)" fill="none" stroke="#DFE0E2" stroke-width="3" stroke-miterlimit="10" x1="362.166" y1="-8.833" x2="217.5" y2="66.5"/>
		
			<line clip-path="url(#SVGID_2_)" fill="none" stroke="#DFE0E2" stroke-width="3" stroke-miterlimit="10" x1="325.166" y1="-8.833" x2="180.5" y2="66.5"/>
		
			<line clip-path="url(#SVGID_2_)" fill="none" stroke="#BEC0C2" stroke-miterlimit="10" x1="241.833" y1="-0.167" x2="97.167" y2="75.166"/>
		
			<line clip-path="url(#SVGID_2_)" fill="none" stroke="#BEC0C2" stroke-miterlimit="10" x1="282.499" y1="-0.167" x2="137.833" y2="75.166"/>
		
			<line clip-path="url(#SVGID_2_)" fill="none" stroke="#BEC0C2" stroke-miterlimit="10" x1="178.167" y1="-0.167" x2="33.501" y2="75.166"/>
		
			<line clip-path="url(#SVGID_2_)" fill="none" stroke="#BEC0C2" stroke-miterlimit="10" x1="128.167" y1="-0.167" x2="-16.499" y2="75.166"/>
		
			<line clip-path="url(#SVGID_2_)" fill="none" stroke="#BEC0C2" stroke-miterlimit="10" x1="110.833" y1="-0.167" x2="-33.833" y2="75.166"/>
		
			<line clip-path="url(#SVGID_2_)" fill="none" stroke="#BEC0C2" stroke-miterlimit="10" x1="67.833" y1="-0.167" x2="-76.833" y2="75.166"/>
		
			<line clip-path="url(#SVGID_2_)" fill="none" stroke="#BEC0C2" stroke-miterlimit="10" x1="25.833" y1="-0.167" x2="-118.833" y2="75.166"/>
		
			<line clip-path="url(#SVGID_2_)" fill="none" stroke="#BEC0C2" stroke-miterlimit="10" x1="-11.167" y1="-0.167" x2="-155.833" y2="75.166"/>
		
			<line clip-path="url(#SVGID_2_)" fill="none" stroke="#DFE0E2" stroke-width="3" stroke-miterlimit="10" x1="270.833" y1="-7.5" x2="126.167" y2="67.833"/>
		
			<line clip-path="url(#SVGID_2_)" fill="none" stroke="#DFE0E2" stroke-width="3" stroke-miterlimit="10" x1="207.167" y1="-7.5" x2="62.501" y2="67.833"/>
		
			<line clip-path="url(#SVGID_2_)" fill="none" stroke="#DFE0E2" stroke-width="3" stroke-miterlimit="10" x1="157.167" y1="-7.5" x2="12.501" y2="67.833"/>
		
			<line clip-path="url(#SVGID_2_)" fill="none" stroke="#DFE0E2" stroke-width="3" stroke-miterlimit="10" x1="139.833" y1="-7.5" x2="-4.833" y2="67.833"/>
		
			<line clip-path="url(#SVGID_2_)" fill="none" stroke="#DFE0E2" stroke-width="3" stroke-miterlimit="10" x1="96.833" y1="-7.5" x2="-47.833" y2="67.833"/>
		
			<line clip-path="url(#SVGID_2_)" fill="none" stroke="#DFE0E2" stroke-width="3" stroke-miterlimit="10" x1="54.833" y1="-7.5" x2="-89.833" y2="67.833"/>
		
			<line clip-path="url(#SVGID_2_)" fill="none" stroke="#DFE0E2" stroke-width="3" stroke-miterlimit="10" x1="17.833" y1="-7.5" x2="-126.833" y2="67.833"/>
		<g clip-path="url(#SVGID_2_)">
			<line fill="none" stroke="#C5C6C8" stroke-width="2" stroke-miterlimit="10" x1="323.499" y1="-3.833" x2="178.833" y2="71.5"/>
			<line fill="none" stroke="#C5C6C8" stroke-width="2" stroke-miterlimit="10" x1="364.165" y1="-3.833" x2="219.499" y2="71.5"/>
			<line fill="none" stroke="#C5C6C8" stroke-width="2" stroke-miterlimit="10" x1="259.832" y1="-3.833" x2="115.166" y2="71.5"/>
			<line fill="none" stroke="#C5C6C8" stroke-width="2" stroke-miterlimit="10" x1="209.832" y1="-3.833" x2="65.166" y2="71.5"/>
			<line fill="none" stroke="#C5C6C8" stroke-width="2" stroke-miterlimit="10" x1="192.499" y1="-3.833" x2="47.833" y2="71.5"/>
			<line fill="none" stroke="#C5C6C8" stroke-width="2" stroke-miterlimit="10" x1="149.498" y1="-3.833" x2="4.833" y2="71.5"/>
			<line fill="none" stroke="#C5C6C8" stroke-width="2" stroke-miterlimit="10" x1="107.498" y1="-3.833" x2="-37.167" y2="71.5"/>
			<line fill="none" stroke="#C5C6C8" stroke-width="2" stroke-miterlimit="10" x1="70.498" y1="-3.833" x2="-74.167" y2="71.5"/>
		</g>
	</g>
</g>
</svg>
